<svg width="527" height="527" viewBox="0 0 527 527" fill="none" xmlns="http://www.w3.org/2000/svg">
<circle cx="263.5" cy="263.5" r="262.5" stroke="#F5F5F5" stroke-width="2"/>
<path d="M-6.28233e-05 263.5C-6.28233e-05 333.385 27.7615 400.407 77.1773 449.823C126.593 499.238 193.615 527 263.5 527C333.384 527 400.407 499.238 449.823 449.823C499.238 400.407 527 333.385 527 263.5H514.602C514.602 330.097 488.147 393.965 441.056 441.056C393.965 488.147 330.096 514.602 263.5 514.602C196.903 514.602 133.035 488.147 85.9437 441.056C38.8529 393.965 12.3975 330.096 12.3975 263.5H-6.28233e-05Z" fill="white"/>
</svg>
