<svg width="308" height="46" viewBox="0 0 308 46" fill="none" xmlns="http://www.w3.org/2000/svg">
<path d="M6.74417 0.664437C6.63791 0.609641 6.52846 0.559609 6.41821 0.515137C6.52926 0.558021 6.63871 0.608052 6.74417 0.664437Z" fill="#212121"/>
<path d="M24.4287 22.749C24.3208 22.8944 24.1994 23.0317 24.0668 23.1644C23.2902 23.9363 22.2692 24.3198 21.2522 24.3127C22.2524 24.3055 23.2495 23.922 24.0116 23.1644L24.4287 22.749Z" fill="#212121"/>
<path d="M40.3254 6.94707L24.4287 22.749L24.0109 23.1644C23.2488 23.922 22.2517 24.3048 21.2515 24.3127C20.2528 24.3056 19.2526 23.922 18.4905 23.1644L8.8724 13.6028V41.8769C8.8724 44.041 7.10761 45.7952 4.93058 45.7952C2.75356 45.7952 0.98877 44.041 0.98877 41.8769V4.14294C0.98877 1.97888 2.75356 0.224609 4.93058 0.224609C5.45626 0.224609 5.95958 0.327849 6.41815 0.514474C6.5276 0.559741 6.63705 0.608977 6.7441 0.663773C6.94703 0.767013 7.14276 0.890106 7.32811 1.03385C7.36645 1.06005 7.40241 1.08864 7.43756 1.11961C7.53423 1.19665 7.6277 1.28083 7.71797 1.37215C7.71957 1.37215 7.72117 1.37374 7.72197 1.37533L21.2515 14.8242L34.7514 1.4063C35.5208 0.641538 36.5298 0.257963 37.5388 0.257963C38.5478 0.257963 39.5569 0.640743 40.3262 1.4063C41.8657 2.93583 41.8657 5.41754 40.3254 6.94707Z" fill="#212121"/>
<path d="M21.2522 24.3121C20.2344 24.3192 19.2142 23.9365 18.4376 23.1637C18.3074 23.0343 18.1884 22.8985 18.0813 22.7563L18.4911 23.1637C19.2533 23.9214 20.2535 24.3049 21.2522 24.3121Z" fill="#212121"/>
<path d="M82.4983 21.9123C83.1143 34.4813 73.3628 45.1665 60.7185 45.7788C49.7159 46.3117 40.1466 39.0405 37.4431 28.8619C37.4343 28.8317 37.4271 28.8015 37.4183 28.7698C37.3584 28.5299 37.3208 28.279 37.3089 28.0225C37.3025 27.889 37.3033 27.7572 37.3097 27.6254C37.3121 27.5587 37.3176 27.4912 37.3248 27.4245C37.332 27.3601 37.3408 27.2958 37.3504 27.2331C37.3504 27.2315 37.3504 27.2291 37.3512 27.2275C37.3576 27.1775 37.3672 27.129 37.3776 27.0798C37.3784 27.0679 37.3808 27.0552 37.3848 27.0417C37.7379 25.3319 39.2182 24.008 41.0541 23.9191C42.89 23.8301 44.4926 25.0055 45.0111 26.6724H45.0183C46.7256 33.4449 53.0506 38.3043 60.3342 37.9517C68.6301 37.5499 75.0269 30.5407 74.6227 22.2943C74.2256 14.1924 67.4133 7.91383 59.3084 8.07504V8.06948C57.4262 8.16081 55.7868 6.92194 55.3139 5.18513C55.3051 5.15495 55.2979 5.12478 55.2891 5.09301C55.2292 4.85318 55.1916 4.60223 55.1796 4.34572C55.1621 3.98438 55.194 3.63178 55.2715 3.29506C55.2835 3.24344 55.2955 3.19182 55.3091 3.14179C55.3482 2.98852 55.3993 2.83922 55.4585 2.69548C55.4776 2.64624 55.4976 2.59938 55.52 2.55174C55.5399 2.50885 55.5599 2.46517 55.5807 2.42229C55.659 2.26425 55.7469 2.11495 55.8435 1.97042C55.8707 1.92992 55.8979 1.891 55.9282 1.8513C55.957 1.81238 55.9857 1.77268 56.0161 1.73535C56.0369 1.70994 56.0576 1.68373 56.0784 1.65991C56.1823 1.53443 56.2957 1.41372 56.4148 1.30254C56.4467 1.27316 56.4795 1.24457 56.513 1.21518C56.5202 1.20724 56.5282 1.20168 56.5354 1.19533C56.5721 1.16277 56.6097 1.1318 56.6488 1.10083C56.688 1.06827 56.7303 1.0373 56.7711 1.00632C56.8094 0.978528 56.8486 0.949938 56.8885 0.922143C57.0227 0.83161 57.1617 0.747431 57.3079 0.673575C57.3463 0.654516 57.3862 0.634661 57.4262 0.615601C57.439 0.609248 57.4501 0.602896 57.4629 0.598131C57.4941 0.583837 57.526 0.570335 57.5572 0.55604C57.5828 0.545716 57.6091 0.534598 57.6331 0.525068C57.6658 0.511568 57.6994 0.50045 57.7322 0.48695C57.8312 0.450419 57.9335 0.41627 58.0357 0.387681C58.0717 0.377357 58.1076 0.367827 58.1436 0.359092C58.1668 0.353533 58.1883 0.347974 58.2115 0.34162C58.2491 0.333679 58.285 0.326532 58.3225 0.318591C58.3417 0.31462 58.3601 0.310649 58.3793 0.307473C58.4112 0.301914 58.4448 0.29556 58.4767 0.290795C58.5055 0.285236 58.5359 0.280471 58.567 0.278088C58.6022 0.271735 58.6365 0.267764 58.6733 0.264588C58.7268 0.257441 58.7827 0.25347 58.8378 0.249499C58.9633 0.244734 59.0871 0.241558 59.2117 0.239969C71.5421 0.0223728 81.8943 9.58312 82.4983 21.9123Z" fill="#212121"/>
<path d="M59.2125 0.23809C59.0887 0.239678 58.9641 0.242855 58.8386 0.24762C58.8674 0.243649 58.8969 0.242061 58.9257 0.240473C59.0224 0.235709 59.1174 0.234119 59.2125 0.23809Z" fill="#212121"/>
<path d="M145.245 0.146484C132.586 0.146484 122.323 10.3473 122.323 22.9322C122.323 35.5171 132.585 45.7179 145.245 45.7179C157.906 45.7179 168.168 35.5171 168.168 22.9322C168.168 10.3473 157.905 0.146484 145.245 0.146484ZM145.245 37.8805C136.939 37.8805 130.207 31.1882 130.207 22.9322C130.207 14.6762 136.94 7.98394 145.245 7.98394C153.552 7.98394 160.283 14.6762 160.283 22.9322C160.283 31.1882 153.552 37.8805 145.245 37.8805Z" fill="#212121"/>
<path d="M177.782 45.1382C177.842 45.1636 177.902 45.1858 177.961 45.2081C177.901 45.1858 177.841 45.1628 177.782 45.1382Z" fill="#212121"/>
<path d="M179.3 45.4399H179.568C179.033 45.474 178.486 45.3994 177.961 45.208C178.379 45.3573 178.829 45.4399 179.3 45.4399Z" fill="#212121"/>
<path d="M177.319 44.9062C177.366 44.9333 177.413 44.9618 177.461 44.9873C177.422 44.9658 177.384 44.9436 177.345 44.9221C177.336 44.9166 177.328 44.911 177.319 44.9062Z" fill="#212121"/>
<path d="M177.319 44.9066C176.146 44.2284 175.358 42.9673 175.358 41.5219C175.358 40.677 175.626 39.8979 176.083 39.2578L175.902 39.5699C174.819 41.4362 175.455 43.8178 177.319 44.9066Z" fill="#212121"/>
<path d="M207.183 41.521C207.183 43.6851 205.418 45.4393 203.241 45.4393H179.3C178.762 45.4393 178.249 45.3321 177.782 45.1376C177.745 45.1233 177.709 45.1074 177.672 45.0899C177.602 45.0581 177.532 45.0232 177.462 44.9867C177.423 44.9652 177.385 44.943 177.345 44.9216C175.461 43.8399 174.814 41.444 175.903 39.569L176.084 39.2569L194.086 8.26128H181.334C179.157 8.26128 177.393 6.507 177.393 4.34295C177.393 3.26211 177.834 2.28055 178.548 1.57217C179.26 0.862197 180.247 0.423828 181.335 0.423828H200.908C203.085 0.423828 204.849 2.1781 204.849 4.34216C204.849 4.43507 204.846 4.5264 204.837 4.61614C204.832 4.69873 204.823 4.78291 204.813 4.8655C204.808 4.90203 204.802 4.93697 204.798 4.97271C204.788 5.03545 204.777 5.09739 204.763 5.15854C204.753 5.21095 204.74 5.26178 204.726 5.31419C204.726 5.31737 204.725 5.31975 204.723 5.32452C204.709 5.38567 204.691 5.44682 204.672 5.50717C204.587 5.78592 204.469 6.0599 204.316 6.32276L186.148 37.6011H203.241C205.417 37.6027 207.183 39.3577 207.183 41.521Z" fill="#212121"/>
<path d="M204.837 4.61768C204.832 4.70186 204.825 4.78445 204.812 4.86704C204.822 4.78445 204.831 4.70027 204.837 4.61768Z" fill="#212121"/>
<path d="M257.877 24.021C257.279 36.3501 246.93 45.9156 234.601 45.7052C234.477 45.7036 234.352 45.7004 234.227 45.6957C234.172 45.6917 234.116 45.6877 234.062 45.6806C234.026 45.6774 233.991 45.6726 233.956 45.6671C233.926 45.6639 233.895 45.6599 233.866 45.6544C233.84 45.6504 233.816 45.6464 233.789 45.6409C233.74 45.6329 233.689 45.6226 233.641 45.6123C233.577 45.5988 233.514 45.5829 233.452 45.5654C233.391 45.5495 233.331 45.5305 233.271 45.5114C233.271 45.5114 233.269 45.5114 233.268 45.5098C233.208 45.4908 233.148 45.4693 233.089 45.4463C233.038 45.428 232.988 45.4082 232.939 45.3867C232.916 45.3772 232.894 45.3653 232.87 45.3558C232.836 45.3407 232.803 45.3248 232.771 45.3089C232.756 45.3026 232.74 45.2946 232.727 45.2867C232.683 45.266 232.64 45.243 232.598 45.2192C232.445 45.1366 232.3 45.0421 232.16 44.9396C232.119 44.9087 232.077 44.8777 232.038 44.8451C231.999 44.8142 231.96 44.7832 231.925 44.7514C231.917 44.7451 231.909 44.7387 231.902 44.7316C231.869 44.7038 231.837 44.6736 231.804 44.6442C231.711 44.5584 231.624 44.4687 231.541 44.3726C231.511 44.3377 231.48 44.3027 231.452 44.2678C231.405 44.2114 231.36 44.1526 231.317 44.0939C231.281 44.047 231.249 44.0002 231.217 43.9525C231.185 43.9041 231.155 43.8564 231.124 43.8072C231.122 43.8024 231.12 43.8 231.118 43.7953C231.088 43.7444 231.057 43.692 231.031 43.6388C231.027 43.6325 231.023 43.6253 231.019 43.6182C230.999 43.5824 230.979 43.5451 230.963 43.5078C230.944 43.4705 230.925 43.4331 230.91 43.395C230.888 43.3505 230.869 43.3061 230.851 43.26C230.791 43.1131 230.74 42.9614 230.699 42.805C230.685 42.7549 230.673 42.7033 230.661 42.6517C230.584 42.315 230.551 41.9632 230.57 41.601C230.582 41.3445 230.619 41.0936 230.679 40.8537C230.688 40.822 230.695 40.7918 230.704 40.7616C231.175 39.0248 232.815 37.7851 234.697 37.8757V37.8701C242.802 38.0282 249.611 31.7464 250.004 23.6445C250.404 15.3973 244.004 8.39134 235.708 7.99347C228.424 7.64404 222.101 12.5066 220.397 19.2799H220.39C219.872 20.9476 218.27 22.1237 216.434 22.0356C214.598 21.9474 213.117 20.6244 212.763 18.9146C212.759 18.9011 212.756 18.8892 212.756 18.8765C212.745 18.828 212.736 18.778 212.729 18.7288C212.728 18.7272 212.728 18.724 212.728 18.7232C212.717 18.6605 212.709 18.5961 212.702 18.5318C212.695 18.4643 212.689 18.3976 212.687 18.3309C212.68 18.1999 212.679 18.0672 212.685 17.9338C212.698 17.6773 212.735 17.4264 212.795 17.1865C212.803 17.1548 212.811 17.1246 212.819 17.0944C215.517 6.91501 225.084 -0.360976 236.087 0.167133C248.731 0.770686 258.487 11.4512 257.877 24.021Z" fill="#212121"/>
<path d="M234.601 45.7053C234.506 45.7093 234.411 45.7077 234.315 45.703C234.285 45.7014 234.257 45.6998 234.228 45.6958C234.352 45.7006 234.476 45.7037 234.601 45.7053Z" fill="#212121"/>
<path d="M307.248 4.0603C307.248 4.61461 307.129 5.17767 306.878 5.71372L289.16 43.4834C288.24 45.4442 285.895 46.2931 283.921 45.3782C281.948 44.4642 281.094 42.1326 282.014 40.171L299.733 2.40132C300.652 0.439776 302.998 -0.408374 304.971 0.506485C306.405 1.17119 307.248 2.58477 307.248 4.0603Z" fill="#212121"/>
<path d="M276.641 22.9054C274.668 23.8194 272.322 22.9705 271.402 21.0097L264.232 5.72238C263.311 3.76163 264.165 1.42922 266.139 0.515152C266.678 0.264995 267.244 0.147461 267.802 0.147461C269.285 0.147461 270.707 0.985288 271.378 2.40999L278.547 17.6966C279.468 19.6589 278.614 21.9897 276.641 22.9054Z" fill="#212121"/>
<path d="M113.803 41.849C113.803 43.084 113.217 44.3006 112.122 45.0622C110.339 46.3042 107.881 45.8738 106.633 44.0997L92.6347 24.2285C91.7263 22.938 91.7087 21.2941 92.4533 20.0155C92.4972 19.9417 92.5412 19.8686 92.5891 19.7979C92.8536 19.4072 93.1923 19.0578 93.6021 18.7719C94.2988 18.2875 95.0969 18.0564 95.887 18.0619V18.0301H95.8886C95.9413 18.0301 95.9949 18.0286 96.0476 18.027C98.7823 17.9444 100.972 15.7152 100.972 12.9746C100.972 10.2435 98.7927 8.01514 96.0668 7.92222C96.0069 7.9262 95.9469 7.92778 95.887 7.92778C93.71 7.92778 91.9452 6.17351 91.9452 4.00946C91.9452 3.75295 91.97 3.50041 92.0179 3.2574C92.0251 3.22563 92.0307 3.19466 92.0387 3.16448C92.4253 1.40703 94.0024 0.090332 95.887 0.090332H95.8886C103.045 0.090332 108.849 5.85744 108.849 12.9738C108.849 17.7935 106.187 21.9953 102.244 24.2039L113.09 39.604C113.572 40.2893 113.803 41.0748 113.803 41.849Z" fill="#212121"/>
<path d="M96.0476 18.0276C95.9949 18.0292 95.9413 18.0308 95.8886 18.0308H95.887V18.0626C95.0969 18.057 94.2988 18.2873 93.6021 18.7725C93.1915 19.0584 92.8528 19.4078 92.5891 19.7986C93.2914 18.7288 94.5065 18.0236 95.887 18.0236C95.9413 18.0228 95.9949 18.0244 96.0476 18.0276Z" fill="#212121"/>
</svg>
