<svg viewBox="0 0 28 24" fill="none" xmlns="http://www.w3.org/2000/svg">
<path d="M5.85156 19.5566C6.01432 19.7194 6.20312 19.8268 6.41797 19.8789C6.63932 19.931 6.85742 19.931 7.07227 19.8789C7.28711 19.8268 7.47266 19.7227 7.62891 19.5664L13.4492 13.7461L19.2695 19.5664C19.4258 19.7227 19.6113 19.8268 19.8262 19.8789C20.041 19.931 20.2559 19.931 20.4707 19.8789C20.6855 19.8268 20.8743 19.7194 21.0371 19.5566C21.1999 19.3939 21.3073 19.2051 21.3594 18.9902C21.4115 18.7754 21.4115 18.5605 21.3594 18.3457C21.3073 18.1309 21.2031 17.9453 21.0469 17.7891L15.2363 11.959L21.0469 6.13867C21.2031 5.98242 21.3073 5.79688 21.3594 5.58203C21.418 5.36719 21.418 5.15234 21.3594 4.9375C21.3073 4.72266 21.1999 4.53711 21.0371 4.38086C20.8743 4.21159 20.6855 4.10091 20.4707 4.04883C20.2559 3.99674 20.041 3.99674 19.8262 4.04883C19.6113 4.10091 19.4258 4.20508 19.2695 4.36133L13.4492 10.1816L7.62891 4.36133C7.47266 4.20508 7.28385 4.10091 7.0625 4.04883C6.84766 3.99674 6.62956 3.99674 6.4082 4.04883C6.19336 4.10091 6.00781 4.20833 5.85156 4.37109C5.6888 4.53385 5.58138 4.72266 5.5293 4.9375C5.48372 5.15234 5.48372 5.37044 5.5293 5.5918C5.58138 5.80664 5.68555 5.98893 5.8418 6.13867L11.6621 11.959L5.8418 17.7891C5.68555 17.9453 5.58138 18.1309 5.5293 18.3457C5.47721 18.5605 5.47721 18.7754 5.5293 18.9902C5.58138 19.2051 5.6888 19.3939 5.85156 19.5566Z" fill="white"/>
<rect x="1" y="1" width="26" height="22" rx="7" stroke="white" stroke-width="2"/>
</svg>
